<svg aria-hidden="true" style="width:0;height:0;position:absolute;overflow:hidden" xmlns="http://www.w3.org/2000/svg"><defs><symbol id="icon-2" viewBox="0 0 55 32"><path d="M2.076 31.059v-6.278L13.029 14.65c.693-.664 1.198-1.241 1.515-1.732.346-.49.577-.923.693-1.299a4.01 4.01 0 0 0 .173-1.123v-.003c0-.75-.245-1.327-.736-1.732-.491-.433-1.226-.649-2.208-.649-.894 0-1.747.245-2.554.736-.808.461-1.444 1.155-1.905 2.078L.301 7.073c1.096-2.078 2.742-3.767 4.936-5.065S10.158.06 13.42.06c2.395 0 4.518.39 6.364 1.169s3.29 1.876 4.329 3.29 1.559 3.088 1.559 5.022a11.46 11.46 0 0 1-.409 3.024l.019-.08c-.231.982-.722 2.021-1.472 3.117-.75 1.068-1.862 2.265-3.334 3.593l-8.226 7.49-1.602-3.55h15.716v7.923H2.076zm38.549.693c-2.078 0-4.185-.231-6.321-.693s-4.012-1.14-5.628-2.035l3.464-7.533a16.244 16.244 0 0 0 3.953 1.661l.117.027c1.443.346 2.8.52 4.07.52 1.155 0 2.093-.188 2.814-.563.75-.405 1.126-.996 1.126-1.775 0-.664-.274-1.169-.823-1.515-.548-.376-1.472-.563-2.771-.563H36.6v-6.278l7.836-7.966.909 3.42h-15.11V.753h22.6v6.278l-7.836 7.966-4.892-2.771h2.684c3.81 0 6.711.852 8.702 2.554s2.987 3.896 2.987 6.581c0 1.732-.49 3.391-1.472 4.979-.952 1.588-2.453 2.887-4.503 3.896-2.021 1.01-4.647 1.515-7.88 1.515z"/></symbol><symbol id="icon-21" viewBox="0 0 49 32"><path d="M5.902 31.059V4.303l4.373 4.156H.707V.753H16.12v30.306H5.903zm30.218.693c-2.887 0-5.426-.549-7.62-1.645-2.165-1.126-3.868-2.786-5.109-4.979-1.212-2.222-1.818-4.979-1.818-8.269 0-3.55.707-6.567 2.121-9.048 1.415-2.511 3.377-4.43 5.888-5.758C32.121.726 35.051.061 38.371.061c1.789 0 3.507.216 5.152.649 1.674.405 3.088.982 4.243 1.732l-3.68 7.144c-.894-.635-1.804-1.054-2.728-1.256a10.784 10.784 0 0 0-2.744-.346h-.028.001c-2.049 0-3.694.621-4.936 1.862-1.212 1.212-1.818 2.987-1.818 5.325v2.554l-2.338-1.688c.577-.982 1.256-1.804 2.035-2.468.779-.693 1.704-1.212 2.771-1.559 1.068-.376 2.309-.563 3.723-.563 1.848 0 3.55.405 5.109 1.212 1.588.779 2.857 1.891 3.81 3.334.982 1.443 1.472 3.16 1.472 5.152 0 2.165-.549 4.04-1.645 5.628s-2.584 2.814-4.459 3.68c-1.848.866-3.911 1.299-6.191 1.299zm-.692-7.057c.606 0 1.14-.116 1.602-.346.49-.26.866-.621 1.126-1.082s.39-1.01.39-1.645c0-.952-.289-1.704-.866-2.251-.577-.577-1.327-.866-2.251-.866-.606 0-1.14.13-1.602.39s-.838.621-1.126 1.082c-.26.461-.39 1.01-.39 1.645s.13 1.183.39 1.645c.289.461.664.823 1.126 1.082.461.231.996.346 1.602.346z"/></symbol></defs></svg>