<svg aria-hidden="true" style="position: absolute; width: 0; height: 0; overflow: hidden;" version="1.1" xmlns="http://www.w3.org/2000/svg" xmlns:xlink="http://www.w3.org/1999/xlink">
<defs>
<symbol id="icon-2" viewBox="0 0 55 32">
<path d="M2.076 31.059v-6.278l10.953-10.131c0.693-0.664 1.198-1.241 1.515-1.732 0.346-0.49 0.577-0.923 0.693-1.299 0.105-0.336 0.167-0.722 0.173-1.123l0-0.003c0-0.75-0.245-1.327-0.736-1.732-0.491-0.433-1.226-0.649-2.208-0.649-0.894 0-1.747 0.245-2.554 0.736-0.808 0.461-1.444 1.155-1.905 2.078l-7.706-3.853c1.096-2.078 2.742-3.767 4.936-5.065s4.921-1.948 8.183-1.948c2.395 0 4.518 0.39 6.364 1.169s3.29 1.876 4.329 3.29 1.559 3.088 1.559 5.022c-0.002 1.048-0.144 2.061-0.409 3.024l0.019-0.080c-0.231 0.982-0.722 2.021-1.472 3.117-0.75 1.068-1.862 2.265-3.334 3.593l-8.226 7.49-1.602-3.55h15.716v7.923h-24.288zM40.625 31.752c-2.078 0-4.185-0.231-6.321-0.693s-4.012-1.14-5.628-2.035l3.464-7.533c1.171 0.693 2.523 1.27 3.953 1.661l0.117 0.027c1.443 0.346 2.8 0.52 4.070 0.52 1.155 0 2.093-0.188 2.814-0.563 0.75-0.405 1.126-0.996 1.126-1.775 0-0.664-0.274-1.169-0.823-1.515-0.548-0.376-1.472-0.563-2.771-0.563h-4.026v-6.278l7.836-7.966 0.909 3.42h-15.11v-7.706h22.6v6.278l-7.836 7.966-4.892-2.771h2.684c3.81 0 6.711 0.852 8.702 2.554s2.987 3.896 2.987 6.581c0 1.732-0.49 3.391-1.472 4.979-0.952 1.588-2.453 2.887-4.503 3.896-2.021 1.010-4.647 1.515-7.88 1.515z"></path>
</symbol>
<symbol id="icon-21" viewBox="0 0 49 32">
<path d="M5.902 31.059v-26.756l4.373 4.156h-9.568v-7.706h15.413v30.306h-10.217zM36.12 31.752c-2.887 0-5.426-0.549-7.62-1.645-2.165-1.126-3.868-2.786-5.109-4.979-1.212-2.222-1.818-4.979-1.818-8.269 0-3.55 0.707-6.567 2.121-9.048 1.415-2.511 3.377-4.43 5.888-5.758 2.539-1.327 5.469-1.992 8.789-1.992 1.789 0 3.507 0.216 5.152 0.649 1.674 0.405 3.088 0.982 4.243 1.732l-3.68 7.144c-0.894-0.635-1.804-1.054-2.728-1.256-0.824-0.22-1.769-0.346-2.744-0.346-0.009 0-0.019 0-0.028 0h0.001c-2.049 0-3.694 0.621-4.936 1.862-1.212 1.212-1.818 2.987-1.818 5.325v2.554l-2.338-1.688c0.577-0.982 1.256-1.804 2.035-2.468 0.779-0.693 1.704-1.212 2.771-1.559 1.068-0.376 2.309-0.563 3.723-0.563 1.848 0 3.55 0.405 5.109 1.212 1.588 0.779 2.857 1.891 3.81 3.334 0.982 1.443 1.472 3.16 1.472 5.152 0 2.165-0.549 4.040-1.645 5.628s-2.584 2.814-4.459 3.68c-1.848 0.866-3.911 1.299-6.191 1.299zM35.428 24.695c0.606 0 1.14-0.116 1.602-0.346 0.49-0.26 0.866-0.621 1.126-1.082s0.39-1.010 0.39-1.645c0-0.952-0.289-1.704-0.866-2.251-0.577-0.577-1.327-0.866-2.251-0.866-0.606 0-1.14 0.13-1.602 0.39s-0.838 0.621-1.126 1.082c-0.26 0.461-0.39 1.010-0.39 1.645s0.13 1.183 0.39 1.645c0.289 0.461 0.664 0.823 1.126 1.082 0.461 0.231 0.996 0.346 1.602 0.346z"></path>
</symbol>
</defs>
</svg>
